<svg xmlns="http://www.w3.org/2000/svg" width="68" height="68" viewBox="0 0 68 68" fill="none"><g clip-path="url(#clip0)"><path d="M62.9861 10.2406H5.01389C2.24627 10.2442 0.00365734 12.4868 0 15.2545V52.7456C0.00365734 55.5132 2.24627 57.7558 5.01389 57.7594H62.9861C65.7537 57.7558 67.9963 55.5132 68 52.7456V15.2545C67.9963 12.4868 65.7537 10.2442 62.9861 10.2406ZM34.8445 24.8101C39.9217 25.2634 43.6702 29.7468 43.2168 34.8242C42.8195 39.2732 39.2935 42.7994 34.8445 43.1966V24.8101ZM1.68238 20.7006H10.2273C11.329 20.7006 12.2222 21.5938 12.2222 22.6955V45.3045C12.2222 46.4062 11.329 47.2994 10.2273 47.2994H1.68238V20.7006ZM33.1555 43.1899C28.0783 42.7366 24.3298 38.2532 24.7832 33.1758C25.1805 28.7268 28.7065 25.2006 33.1555 24.8034V43.1899ZM33.1555 23.1211C27.1473 23.5912 22.6576 28.843 23.1277 34.8512C23.5466 40.2062 27.8005 44.46 33.1555 44.8789V56.0771H5.01389C3.17757 56.0771 1.68903 54.5885 1.68903 52.7522V48.9818H10.2273C12.2583 48.9818 13.9046 47.3353 13.9046 45.3045V40.6497C17.577 40.1558 20.154 36.7784 19.6601 33.1058C19.2572 30.1098 16.9006 27.7531 13.9046 27.3503V22.6955C13.9009 20.6698 12.2596 19.0285 10.2339 19.0248H1.68238V15.2545C1.68238 13.4181 3.17092 11.9296 5.00724 11.9296H33.1555V23.1211ZM13.8713 38.954V38.9474V29.0526C16.6055 29.5134 18.4485 32.1035 17.9876 34.8377C17.6322 36.9465 15.9801 38.5986 13.8713 38.954ZM66.3176 47.2994H57.7727C56.671 47.2994 55.7778 46.4062 55.7778 45.3045V22.6955C55.7778 21.5938 56.671 20.7006 57.7727 20.7006H66.3176V47.2994ZM57.7727 19.0182C55.7417 19.0182 54.0954 20.6645 54.0954 22.6955V27.3503C50.423 27.8442 47.846 31.2216 48.3399 34.8942C48.7428 37.8903 51.0994 40.2469 54.0954 40.6497V45.3045C54.0991 47.3302 55.7404 48.9715 57.7661 48.9752H66.3176V52.7389C66.3176 54.5752 64.8291 56.0638 62.9928 56.0638H34.8445V44.8789C40.8529 44.4088 45.3424 39.157 44.8723 33.1488C44.4534 27.7938 40.1995 23.54 34.8445 23.1211V11.9229H62.9861C64.8224 11.9229 66.311 13.4115 66.311 15.2478L66.3176 19.0182H57.7727ZM54.0954 29.046V29.0526V38.9474C51.3612 38.4866 49.5183 35.8965 49.9791 33.1623C50.3345 31.0535 51.9867 29.4014 54.0954 29.046Z" fill="#2F3E81" stroke="#2F3E81" stroke-width="0.5"></path></g><defs><clipPath id="clip0"><rect width="68" height="68" fill="white"></rect></clipPath></defs></svg>