<?xml version="1.0" encoding="iso-8859-1"?>
<!-- Generator: Adobe Illustrator 20.0.0, SVG Export Plug-In . SVG Version: 6.00 Build 0)  -->
<svg version="1.1" id="Layer_1_1_" xmlns="http://www.w3.org/2000/svg" xmlns:xlink="http://www.w3.org/1999/xlink" x="0px" y="0px" fill="#2F3E81" viewBox="0 0 64 64" style="enable-background:new 0 0 64 64;" xml:space="preserve">
<g id="Guide">
	<g>
	</g>
	<g>
	</g>
	<g>
	</g>
	<g>
	</g>
	<g>
	</g>
	<g>
	</g>
	<g>
	</g>
	<g>
	</g>
	<g>
	</g>
	<g>
	</g>
	<g>
	</g>
	<g>
	</g>
	<g>
	</g>
	<g>
	</g>
	<g>
	</g>
	<g>
	</g>
	<g>
	</g>
	<g>
	</g>
	<g>
	</g>
	<g>
	</g>
	<g>
	</g>
	<g>
	</g>
	<g>
	</g>
	<g>
	</g>
	<g>
	</g>
	<g>
	</g>
	<g>
	</g>
	<g>
	</g>
	<g>
	</g>
	<g>
	</g>
	<g>
	</g>
	<g>
	</g>
	<g>
	</g>
	<g>
	</g>
	<g>
	</g>
	<g>
	</g>
</g>
<path d="M61,5c0-2.757-2.243-5-5-5H8C5.243,0,3,2.243,3,5v37H1c-0.553,0-1,0.447-1,1v1c0,2.757,2.243,5,5,5h31.051
	C36.027,49.332,36,49.662,36,50c0,7.72,6.28,14,14,14s14-6.28,14-14c0-3.257-1.128-6.251-3-8.632V5z M49.999,61.348
	c-0.678-0.959-1.689-2.553-2.525-4.546c1.676-0.198,3.372-0.198,5.048-0.001C51.686,58.792,50.676,60.388,49.999,61.348z
	 M46.779,54.882c-0.373-1.21-0.65-2.515-0.743-3.882h7.928c-0.093,1.366-0.371,2.671-0.745,3.882
	C51.082,54.587,48.914,54.588,46.779,54.882z M42.812,38H9V6h46v30.926c-0.009-0.004-0.019-0.005-0.028-0.009
	c-0.185-0.07-0.373-0.132-0.562-0.194c-0.154-0.051-0.307-0.101-0.464-0.147c-0.142-0.042-0.284-0.086-0.428-0.123
	c-0.027-0.007-0.055-0.012-0.082-0.018c-0.096-0.024-0.194-0.043-0.291-0.065c-0.163-0.038-0.325-0.077-0.49-0.109
	c-0.206-0.04-0.414-0.07-0.622-0.1c-0.056-0.008-0.112-0.015-0.168-0.022c-0.027-0.004-0.054-0.007-0.082-0.011
	c-0.148-0.019-0.293-0.044-0.443-0.059C50.897,36.026,50.451,36,50,36c-0.536,0-1.062,0.037-1.582,0.096
	c-0.169,0.019-0.334,0.052-0.502,0.077c-0.349,0.052-0.696,0.112-1.036,0.19c-0.196,0.045-0.389,0.097-0.583,0.15
	c-0.305,0.084-0.606,0.177-0.903,0.281c-0.199,0.069-0.397,0.139-0.592,0.217c-0.189,0.076-0.375,0.158-0.56,0.242
	c-0.016,0.007-0.031,0.016-0.047,0.023c-0.086,0.039-0.17,0.082-0.255,0.123c-0.179,0.086-0.361,0.165-0.535,0.258
	c-0.167,0.09-0.326,0.192-0.489,0.288C42.882,37.965,42.845,37.98,42.812,38z M57.503,40.649c0.154,0.124,0.301,0.256,0.449,0.388
	c0.159,0.141,0.32,0.279,0.471,0.428c0.037,0.036,0.069,0.077,0.106,0.114c-1.288,0.56-2.622,0.982-3.98,1.276
	c-0.758-1.915-1.676-3.513-2.423-4.645c0.179,0.032,0.36,0.057,0.537,0.098c0.115,0.026,0.227,0.058,0.341,0.088
	c0.065,0.017,0.129,0.037,0.194,0.055c0.271,0.076,0.541,0.156,0.807,0.251c0.081,0.029,0.162,0.058,0.242,0.089
	c0.067,0.025,0.132,0.054,0.199,0.08c0.33,0.133,0.657,0.276,0.979,0.44c0.179,0.091,0.355,0.185,0.529,0.285
	c0.185,0.106,0.367,0.216,0.546,0.332c0.163,0.105,0.322,0.217,0.48,0.331C57.157,40.385,57.333,40.513,57.503,40.649z M38.051,49
	c0.024-0.285,0.063-0.564,0.106-0.843c0-0.002,0.001-0.003,0.002-0.005c0.064-0.413,0.149-0.822,0.255-1.225
	c0-0.001,0.001-0.003,0.001-0.004c0.104-0.393,0.229-0.781,0.374-1.165c0.007-0.018,0.013-0.037,0.02-0.055
	c0.129-0.337,0.277-0.67,0.448-1.018c0.022-0.045,0.043-0.091,0.066-0.136c0.157-0.306,0.328-0.602,0.51-0.892
	c0.032-0.051,0.061-0.104,0.094-0.155c0.073-0.114,0.161-0.214,0.238-0.324c1.491,0.692,3.04,1.223,4.623,1.583
	c-0.388,1.317-0.657,2.744-0.746,4.239H38.051z M42.031,41.053c0.237-0.212,0.482-0.412,0.733-0.603
	c0.124-0.094,0.246-0.19,0.373-0.279c0.25-0.175,0.51-0.333,0.773-0.489c0.217-0.128,0.436-0.25,0.659-0.364
	c0.241-0.123,0.486-0.239,0.735-0.345c0.135-0.058,0.271-0.114,0.408-0.166c0.06-0.023,0.12-0.044,0.18-0.066
	c0.288-0.105,0.58-0.202,0.877-0.285c0.157-0.044,0.314-0.084,0.474-0.122c0.207-0.049,0.419-0.083,0.63-0.12
	c-0.747,1.132-1.664,2.729-2.422,4.644c-1.353-0.293-2.683-0.713-3.967-1.27c0.083-0.084,0.158-0.176,0.243-0.257
	C41.826,41.234,41.929,41.144,42.031,41.053z M46.782,45.118c1.067,0.147,2.142,0.23,3.218,0.23c1.077,0,2.153-0.083,3.221-0.23
	c0.373,1.21,0.65,2.515,0.743,3.883h-7.928C46.129,47.634,46.407,46.329,46.782,45.118z M47.478,43.198
	c0.836-1.991,1.846-3.587,2.523-4.546c0.678,0.959,1.689,2.553,2.525,4.546C50.85,43.396,49.154,43.396,47.478,43.198z M44.041,51
	c0.089,1.495,0.358,2.923,0.746,4.239c-1.589,0.361-3.144,0.896-4.641,1.591c-1.17-1.682-1.916-3.676-2.095-5.83H44.041z M55.959,51
	h5.99c-0.179,2.155-0.926,4.148-2.095,5.83c-1.496-0.696-3.051-1.23-4.641-1.591C55.601,53.923,55.87,52.495,55.959,51z M55.959,49
	c-0.089-1.495-0.358-2.923-0.746-4.239c1.589-0.361,3.144-0.895,4.641-1.591c1.17,1.682,1.916,3.676,2.095,5.83H55.959z M5,5
	c0-1.654,1.346-3,3-3h48c1.654,0,3,1.346,3,3v34.277c-0.365-0.307-0.747-0.587-1.138-0.854c-0.059-0.04-0.121-0.076-0.18-0.115
	c-0.225-0.148-0.448-0.3-0.681-0.435V5c0-0.553-0.447-1-1-1H8C7.447,4,7,4.447,7,5v34c0,0.553,0.447,1,1,1h32.221
	c-0.154,0.15-0.297,0.309-0.444,0.466c-0.109,0.117-0.218,0.234-0.323,0.355c-0.297,0.341-0.577,0.695-0.841,1.064
	c-0.029,0.04-0.063,0.075-0.091,0.115H5V5z M5,47c-1.654,0-3-1.346-3-3h2h33.362c-0.02,0.043-0.037,0.091-0.057,0.135
	c-0.127,0.274-0.245,0.552-0.355,0.835c-0.009,0.023-0.019,0.043-0.028,0.067c-0.017,0.044-0.029,0.09-0.046,0.135
	c-0.219,0.593-0.407,1.201-0.544,1.829H5z M41.465,58.423c1.29-0.561,2.626-0.985,3.986-1.279c0.761,1.921,1.682,3.524,2.43,4.657
	C45.395,61.356,43.17,60.15,41.465,58.423z M52.119,61.801c0.748-1.133,1.669-2.736,2.43-4.657c1.36,0.294,2.696,0.718,3.986,1.279
	C56.83,60.15,54.605,61.356,52.119,61.801z"/>
<path d="M43,20h8c0.553,0,1-0.447,1-1v-8c0-0.553-0.447-1-1-1h-8c-0.553,0-1,0.447-1,1v8C42,19.553,42.447,20,43,20z M48.414,15
	L50,13.414v3.172L48.414,15z M48.586,18h-3.172L47,16.414L48.586,18z M47,13.586L45.414,12h3.172L47,13.586z M45.586,15L44,16.586
	v-3.172L45.586,15z"/>
<rect x="41" y="22" width="12" height="2"/>
<rect x="41" y="26" width="12" height="2"/>
<rect x="41" y="30" width="12" height="2"/>
<path d="M38.371,20.071L29,16.323V12c0-2.206-1.794-4-4-4s-4,1.794-4,4v4.323l-9.371,3.748C11.249,20.224,11,20.591,11,21v3
	c0,0.553,0.447,1,1,1h9v3.434l-4.515,2.709C16.185,31.323,16,31.648,16,32v3c0,0.308,0.142,0.599,0.385,0.788
	s0.558,0.257,0.857,0.182L25,34.031l7.758,1.938C32.838,35.99,32.919,36,33,36c0.221,0,0.438-0.073,0.615-0.212
	C33.858,35.599,34,35.308,34,35v-3c0-0.352-0.185-0.677-0.485-0.857L29,28.434V25h9c0.553,0,1-0.447,1-1v-3
	C39,20.591,38.751,20.224,38.371,20.071z M37,23h-9c-0.553,0-1,0.447-1,1v5c0,0.352,0.185,0.677,0.485,0.857L32,32.566v1.152
	l-6.758-1.688C25.163,32.01,25.081,32,25,32s-0.163,0.01-0.242,0.03L18,33.719v-1.152l4.515-2.709C22.815,29.677,23,29.352,23,29v-5
	c0-0.553-0.447-1-1-1h-9v-1.323l9.371-3.748C22.751,17.776,23,17.409,23,17v-5c0-1.103,0.897-2,2-2s2,0.897,2,2v5
	c0,0.409,0.249,0.776,0.629,0.929L37,21.677V23z"/>
<path d="M12,62H2v-9h8v-2H1c-0.553,0-1,0.447-1,1v11c0,0.553,0.447,1,1,1h12c0.553,0,1-0.447,1-1v-6h-2V62z"/>
<path d="M4.707,57.293l-1.414,1.414l2,2C5.488,60.902,5.744,61,6,61s0.512-0.098,0.707-0.293l7-7l-1.414-1.414L6,58.586
	L4.707,57.293z"/>
<rect x="16" y="53" width="2" height="2"/>
<rect x="20" y="53" width="2" height="2"/>
<rect x="24" y="53" width="2" height="2"/>
<rect x="28" y="53" width="2" height="2"/>
<rect x="32" y="53" width="2" height="2"/>
<rect x="16" y="57" width="2" height="2"/>
<rect x="20" y="57" width="2" height="2"/>
<rect x="24" y="57" width="2" height="2"/>
<rect x="28" y="57" width="2" height="2"/>
<rect x="32" y="57" width="2" height="2"/>
<rect x="16" y="61" width="2" height="2"/>
<rect x="20" y="61" width="2" height="2"/>
<rect x="24" y="61" width="2" height="2"/>
<rect x="28" y="61" width="2" height="2"/>
<rect x="32" y="61" width="2" height="2"/>
</svg>
