<?xml version="1.0" ?><svg viewBox="0 0 64 64" fill="#2F3E81" xmlns="http://www.w3.org/2000/svg"><g data-name="01 shopping cart" id="_01_shopping_cart"><path d="M13.88,41.01l5.83-3.2H47.63a4.016,4.016,0,0,0,3.5-2.06l8.89-16a4,4,0,0,0-.3-4.34l-1.14-1.52a4.026,4.026,0,0,0-3.2-1.6h-.01l-37.53.09-.3-2.75a4.189,4.189,0,0,0-4.18-3.76H4.48a1,1,0,0,0,0,2h8.88a2.21,2.21,0,0,1,2.2,1.97l2.83,26.42-5.55,3.05a4.2,4.2,0,0,0-1.87,3.5v.42a4.208,4.208,0,0,0,4.2,4.21h.74a6.35,6.35,0,1,0,9.22,0H41.57a6.345,6.345,0,1,0,9.23,0h3.94a1,1,0,1,0,0-2H15.17a2.209,2.209,0,0,1-2.2-2.21v-.42A2.183,2.183,0,0,1,13.88,41.01Zm35.5-6.23a2.01,2.01,0,0,1-1.75,1.03H20.35L18.62,19.66l39.17-.03ZM18.05,14.38l37.33-.09a2,2,0,0,1,1.6.8l1.14,1.52a2.036,2.036,0,0,1,.39,1.02l-40.11.03ZM46.19,47.44a4.345,4.345,0,1,1-4.35,4.34A4.349,4.349,0,0,1,46.19,47.44Zm-25.67,0a4.345,4.345,0,1,1-4.35,4.34A4.351,4.351,0,0,1,20.52,47.44Z"/></g></svg>