<svg xmlns="http://www.w3.org/2000/svg" width="68" height="68" viewBox="0 0 68 68" fill="none"><g clip-path="url(#clip0)"><path d="M43.906 33.0094C47.895 28.3512 50.3848 21.578 50.3848 16.4512C50.3848 7.37559 43.0092 0 33.9336 0C24.858 0 17.4824 7.37559 17.4824 16.4512C17.4824 21.578 19.9722 28.3512 23.9611 33.0094C-0.173504 41.1213 2.35642 63.4488 3.4139 68H64.4533C68.054 52.4055 58.5233 37.2795 43.906 33.0094ZM33.9336 2.19528C39.7029 2.19528 44.669 5.63543 46.9044 10.5748C41.4296 14.3094 35.8745 10.0929 35.8745 10.0929C31.9926 7.83071 27.1202 8.04488 23.4525 10.615L20.1328 12.9441C21.6989 6.78661 27.2808 2.19528 33.9336 2.19528ZM19.6777 16.4512C19.6777 16.2772 19.6911 16.1031 19.7044 15.9291L24.7107 12.4087C27.6824 10.3205 31.6312 10.1598 34.7635 11.9803C34.7635 11.9803 40.8808 16.6654 47.6674 12.6898C47.9887 13.8811 48.1895 15.1394 48.1895 16.4378C48.1895 24.2283 41.8044 36.1819 33.9336 36.1819C26.0627 36.1819 19.6777 24.2417 19.6777 16.4512ZM62.6328 65.8047H5.24775C3.58791 55.511 7.80445 45.6189 15.5682 39.6622C16.0367 42.7409 16.947 45.6992 18.2989 48.5102C14.9123 50.6386 13.3194 54.9087 14.6981 58.8307L16.5186 63.9976L20.6548 62.5386L19.932 60.4638L17.8572 61.1866L16.7596 58.0811C15.5548 54.6543 17.3619 50.8929 20.7887 49.6882C24.2021 48.4835 27.9769 50.2905 29.1816 53.7173L30.2659 56.8228L28.1911 57.5457L28.9139 59.6205L33.0501 58.1614L31.2296 52.9811C29.6501 48.4835 24.7643 46.0874 20.2666 47.5465C18.8477 44.6016 17.9375 41.4693 17.5761 38.2165C20.0123 36.6772 22.743 35.4992 25.7013 34.763C28.0974 36.9449 30.8816 38.337 33.9202 38.337C36.9588 38.337 39.743 36.9449 42.1391 34.763C45.5926 35.6197 48.7383 37.0787 51.469 39.0331C50.8265 41.9512 49.7556 44.722 48.2564 47.2921C47.8816 47.185 47.4934 47.1047 47.0785 47.1047C44.6556 47.1047 42.6879 49.0724 42.6879 51.4953C42.6879 53.9181 44.6556 55.8858 47.0785 55.8858C49.5013 55.8858 51.469 53.9181 51.469 51.4953C51.469 50.2772 50.9737 49.1795 50.1572 48.3764C51.5895 45.9 52.6603 43.2764 53.3698 40.5055C60.4509 46.5961 64.1989 56.0331 62.6328 65.8047ZM49.2871 51.5488C49.2871 52.7535 48.2966 53.7441 47.0918 53.7441C45.8871 53.7441 44.8966 52.7669 44.8966 51.5488C44.8966 50.3307 45.8871 49.3535 47.0918 49.3535C48.3099 49.3535 49.2871 50.3441 49.2871 51.5488Z" fill="#2F3E81"></path></g><defs><clipPath id="clip0"><rect width="68" height="68" fill="white"></rect></clipPath></defs></svg>