<svg xmlns="http://www.w3.org/2000/svg" width="68" height="68" viewBox="0 0 68 68" fill="none"><g clip-path="url(#clip0)"><path d="M36.1835 8.37844L36.2965 8.37917L36.3554 8.28271C39.419 3.26752 44.8697 0.20571 50.7468 0.2C60.035 0.200053 67.5942 7.75907 67.5942 17.0625V17.0628C67.605 24.1702 63.1482 30.5179 56.4598 32.922L56.3275 32.9696V33.1102L56.3274 54.8796L56.3275 54.8818C56.3502 56.995 55.2017 58.9478 53.3433 59.9548L53.2386 60.0115V60.1306L53.2386 64.2934L53.2386 64.2951C53.2467 65.227 52.8805 66.1239 52.2216 66.7829C51.562 67.4419 50.6655 67.8086 49.7333 67.7999H49.7314L44.8039 67.7999L44.8019 67.8C43.8685 67.8092 42.9702 67.443 42.3083 66.7838C41.6471 66.1252 41.2775 65.2281 41.283 64.2945V64.2934V60.9396V60.7396H41.083H15.7835H15.5835V60.9396V64.2785C15.5835 66.2361 13.9578 67.785 11.9884 67.785L7.06089 67.785L7.05847 67.785C6.11826 67.7964 5.21228 67.4327 4.54066 66.7741C3.86978 66.1163 3.48806 65.2176 3.48079 64.2777V60.1157V60.0016L3.38261 59.9435C1.66995 58.9305 0.391895 57.0353 0.391895 54.8647V14.0327C0.399238 12.4757 1.0292 10.9854 2.1407 9.89497L2.14121 9.89448C3.24775 8.80127 4.74056 8.18769 6.29614 8.18712C6.29616 8.18712 6.29619 8.18712 6.29621 8.18712H6.32476H6.32544L36.1835 8.37844ZM2.93372 14.0293L2.9337 14.0293V14.0322V15.6065V15.8053L3.13245 15.8065L33.6973 15.9973L33.8835 15.9984L33.898 15.8128C34.0223 14.2202 34.3743 12.6544 34.9449 11.1618L35.048 10.8922L34.7593 10.8904L6.31174 10.714H6.3105H6.29614H6.29601C4.45736 10.7152 2.95999 12.1911 2.93372 14.0293ZM3.13506 18.3483L2.9337 18.3469V18.5483V36.0957V36.2948L3.13283 36.2957L26.8144 36.3991L27.0152 36.4V36.1991V18.7098V18.5111L26.8166 18.5098L3.13506 18.3483ZM6.3113 60.7396C6.29941 60.7376 6.28697 60.7348 6.27327 60.7312L6.02259 60.6655V60.9247V64.2934H6.02245L6.02274 64.3009C6.0328 64.5677 6.14935 64.8186 6.34605 64.9988L6.34662 64.9993C6.54257 65.1774 6.8011 65.2709 7.06598 65.2581H11.9884C12.5081 65.2581 13.0417 64.889 13.0417 64.2934V60.9396V60.7396H12.8417H6.3113ZM44.1074 64.9881L44.1077 64.9884C44.2939 65.171 44.5476 65.2684 44.8081 65.2581H49.7284C49.9876 65.2653 50.2379 65.1654 50.421 64.9824C50.6039 64.7994 50.7038 64.5492 50.6968 64.2905V60.9396V60.7396H50.4968H44.0248H43.8248V60.9396V64.2907C43.8183 64.5524 43.9212 64.8047 44.1074 64.9881ZM50.4818 58.1978L50.4835 58.1978L53.7857 54.8645V39.2438V39.0446L53.5865 39.0438L28.9632 38.941L28.9105 38.9407L28.8645 38.9665C28.6842 39.0677 28.4803 39.1198 28.2736 39.1173L28.2689 39.1174C28.0569 39.1198 27.8476 39.0675 27.6609 38.9654L27.6165 38.9412L27.5659 38.941L3.13455 38.8375L2.9337 38.8367V39.0375L2.93368 54.8647L2.93372 54.8676C2.96059 56.7077 4.45445 58.1874 6.29501 58.1978H6.29614L50.4818 58.1978ZM29.557 36.1991V36.3983L29.7562 36.3991L53.5848 36.502H53.5857H53.6H53.8V36.302V33.875V33.6394L53.5676 33.6777C52.6348 33.831 51.6918 33.9089 50.7466 33.91C42.09 33.9019 34.8439 27.3462 33.9711 18.7338L33.953 18.5553L33.7736 18.554L29.7585 18.5247L29.557 18.5232V18.7247V36.1991ZM50.7467 31.3682H50.747C58.6507 31.356 65.0545 24.9515 65.0674 17.0479V17.0475C65.0674 9.13842 58.6558 2.72687 50.7467 2.72687C42.8376 2.72687 36.426 9.13842 36.426 17.0475C36.426 24.9566 42.8376 31.3682 50.7467 31.3682Z" fill="#2F3E81" stroke="white" stroke-width="0.4"></path><path d="M43.5834 47.6486H43.3834V47.8486V50.3491V50.5491H43.5834H48.7316H48.9316V50.3491V47.8486V47.6486H48.7316H43.5834ZM50.0551 53.0909C50.055 53.0909 50.0549 53.0909 50.0548 53.0909H42.1131C42.113 53.0909 42.1129 53.0909 42.1127 53.0909C41.4112 53.0888 40.8437 52.5208 40.8416 51.8197V46.378C40.8437 45.6769 41.4112 45.1089 42.1128 45.1068H50.0551C50.756 45.1089 51.3237 45.6768 51.3263 46.3781C51.3263 46.3782 51.3263 46.3783 51.3263 46.3784V51.8193C51.3263 51.8194 51.3263 51.8195 51.3263 51.8196C51.3237 52.5209 50.7561 53.0888 50.0551 53.0909Z" fill="#2F3E81" stroke="white" stroke-width="0.4"></path><path d="M13.1357 50.5491H13.3357V50.3491V47.8486V47.6486H13.1357H8.13468H7.93468V47.8486V50.3491V50.5491H8.13468H13.1357ZM6.66407 45.1068H14.6064C15.3073 45.1089 15.8749 45.6768 15.8776 46.3781C15.8776 46.3782 15.8776 46.3783 15.8776 46.3784V51.8193C15.8776 51.8194 15.8776 51.8195 15.8776 51.8196C15.8749 52.5209 15.3073 53.0888 14.6064 53.0909C14.6063 53.0909 14.6062 53.0909 14.6061 53.0909H6.66434C6.66423 53.0909 6.66412 53.0909 6.66402 53.0909C5.96245 53.0888 5.395 52.5208 5.39287 51.8197V46.378C5.395 45.6769 5.96248 45.1089 6.66407 45.1068Z" fill="#2F3E81" stroke="white" stroke-width="0.4"></path><path d="M20.9016 50.8433H35.8904C36.5924 50.8433 37.1613 51.4122 37.1613 52.1142C37.1613 52.8162 36.5924 53.3851 35.8904 53.3851H20.9016C20.2001 53.3851 19.6307 52.8161 19.6307 52.1142C19.6307 51.4123 20.2001 50.8433 20.9016 50.8433Z" fill="#2F3E81" stroke="white" stroke-width="0.4"></path><path d="M19.6307 46.9655L19.6307 46.9655C19.6297 46.628 19.7631 46.3045 20.0019 46.0658L20.002 46.0656C20.2401 45.8271 20.564 45.6937 20.9007 45.6952V45.6952H20.9016H35.8904C36.5924 45.6952 37.1613 46.2641 37.1613 46.9661C37.1613 47.6681 36.5924 48.237 35.8904 48.237H20.9018C20.2007 48.2348 19.6327 47.6667 19.6307 46.9655Z" fill="#2F3E81" stroke="white" stroke-width="0.4"></path><path d="M52.9663 14.4858L52.5 14.7183L53.0021 14.8575C56.6174 15.8597 59.1201 19.1501 59.1218 22.9018C59.1218 22.9019 59.1218 22.9019 59.1218 22.9019L59.1218 25.1674L59.1218 25.1689C59.1273 25.873 58.5668 26.451 57.863 26.4676H43.7176C43.0137 26.451 42.4534 25.873 42.4593 25.1691H42.4593V25.1674V22.9018L42.4593 22.9018C42.4588 19.1496 44.9625 15.8586 48.5784 14.8575L49.0807 14.7184L48.6143 14.4858C46.5904 13.4763 45.5268 11.2074 46.0456 9.00631L46.0457 9.00625C46.5639 6.80466 48.5287 5.24932 50.7906 5.24932C53.0518 5.24932 55.0166 6.80465 55.5349 9.00625L55.5349 9.00631C56.0537 11.2074 54.9902 13.4763 52.9663 14.4858ZM50.7912 7.80146L50.7904 7.80146C49.5085 7.80272 48.4672 8.83641 48.4578 10.1184L48.4578 10.1191C48.4527 11.4036 49.4907 12.4483 50.7749 12.4527C52.0593 12.4571 53.104 11.4192 53.1084 10.135C53.1128 8.8507 52.0756 7.80587 50.7912 7.80146ZM56.38 23.9258H56.58V23.7258V22.9018C56.58 19.7048 53.9876 17.1124 50.7906 17.1124C47.5929 17.1124 45.0011 19.7048 45.0011 22.9018V23.7258V23.9258H45.2011H56.38Z" fill="#2F3E81" stroke="white" stroke-width="0.4"></path></g><defs><clipPath id="clip0"><rect width="68" height="68" fill="white"></rect></clipPath></defs></svg>