<?xml version="1.0" encoding="UTF-8" standalone="no"?>
<!-- Created with Inkscape (http://www.inkscape.org/) -->

<svg
   xmlns:dc="http://purl.org/dc/elements/1.1/"
   xmlns:cc="http://creativecommons.org/ns#"
   xmlns:rdf="http://www.w3.org/1999/02/22-rdf-syntax-ns#"
   xmlns:svg="http://www.w3.org/2000/svg"
   xmlns="http://www.w3.org/2000/svg"
   xmlns:sodipodi="http://sodipodi.sourceforge.net/DTD/sodipodi-0.dtd"
   xmlns:inkscape="http://www.inkscape.org/namespaces/inkscape"
   id="svg2"
   version="1.1"
   inkscape:version="0.91 r13725"
   xml:space="preserve"
   width="512"
   height="512"
   viewBox="0 0 512 512.00002"
   sodipodi:docname="olimpycs_38.svg"><metadata
     id="metadata8"><rdf:RDF><cc:Work
         rdf:about=""><dc:format>image/svg+xml</dc:format><dc:type
           rdf:resource="http://purl.org/dc/dcmitype/StillImage" /><dc:title></dc:title></cc:Work></rdf:RDF></metadata><defs
     id="defs6"><clipPath
       clipPathUnits="userSpaceOnUse"
       id="clipPath16"><path
         d="m 0,0 621.98,0 0,829.772 L 0,829.772 0,0 Z"
         id="path18"
         inkscape:connector-curvature="0" /></clipPath><radialGradient
       fx="0"
       fy="0"
       cx="0"
       cy="0"
       r="1"
       gradientUnits="userSpaceOnUse"
       gradientTransform="matrix(479.01392,0,0,-479.01392,320.69434,431.88232)"
       spreadMethod="pad"
       id="radialGradient24"><stop
         style="stop-opacity:1;stop-color:#ffffff"
         offset="0"
         id="stop26" /><stop
         style="stop-opacity:1;stop-color:#ffffff"
         offset="0.5188977"
         id="stop28" /><stop
         style="stop-opacity:1;stop-color:#d0d2d6"
         offset="1"
         id="stop30" /></radialGradient><clipPath
       clipPathUnits="userSpaceOnUse"
       id="clipPath38"><path
         d="m 0,829.772 621.98,0 L 621.98,0 0,0 0,829.772 Z"
         id="path40"
         inkscape:connector-curvature="0" /></clipPath><clipPath
       clipPathUnits="userSpaceOnUse"
       id="clipPath62"><path
         d="m 262.146,150.421 -5.469,-6.075 c 0,0 1.824,-4.253 5.367,0.506 l 0,0 c 3.544,4.76 11.038,10.026 16.609,9.722 l 0,0 c 5.57,-0.303 8.304,-7.494 6.683,-25.317 l 0,0 C 283.716,111.434 274.196,99.08 272.07,95.232 l 0,0 C 269.943,91.384 260.121,76.294 252.222,74.675 l 0,0 c -7.899,-1.621 -8.608,6.886 -8.608,6.886 l 0,0 -2.329,-6.075 c 0,0 5.265,-7.394 10.025,-6.584 l 0,0 c 4.761,0.811 10.127,1.924 20.658,12.557 l 0,0 c 17.925,16.507 27.445,8.911 36.052,2.735 l 0,0 c 8.607,-6.178 15.696,-17.419 15.696,-17.419 l 0,0 2.634,-0.305 16.707,16.711 c 0,0 -5.265,-2.025 -19.037,1.822 l 0,0 c -15.899,4.355 -25.215,14.584 -25.013,23.596 l 0,0 c 0.203,9.013 17.822,12.659 32.505,7.29 l 0,0 c 14.685,-5.366 15.8,-17.215 15.8,-17.215 l 0,0 2.025,2.937 c 0,0 1.216,-1.519 -1.519,7.19 l 0,0 c -9.013,17.723 -42.027,17.317 -43.748,17.115 l 0,0 c -1.722,-0.203 -1.316,1.216 -0.81,2.734 l 0,0 c 0.81,4.354 -1.923,5.67 -1.923,5.67 l 0,0 c -4.053,2.026 -6.482,-2.634 -7.697,-4.355 l 0,0 c -1.215,-1.721 -1.113,0.204 -1.113,2.937 l 0,0 c 0.303,24.711 -10.229,25.217 -10.229,25.217 l 0,0 c -0.54,0.102 -1.107,0.15 -1.695,0.15 l 0,0 c -7.559,-0.001 -18.457,-7.848 -18.457,-7.848"
         id="path64"
         inkscape:connector-curvature="0" /></clipPath><radialGradient
       fx="0"
       fy="0"
       cx="0"
       cy="0"
       r="1"
       gradientUnits="userSpaceOnUse"
       gradientTransform="matrix(50.199547,0,0,-50.199547,295.44629,112.36914)"
       spreadMethod="pad"
       id="radialGradient70"><stop
         style="stop-opacity:1;stop-color:#f9c00d"
         offset="0"
         id="stop72" /><stop
         style="stop-opacity:1;stop-color:#f9c00d"
         offset="0.29309138"
         id="stop74" /><stop
         style="stop-opacity:1;stop-color:#e96b35"
         offset="1"
         id="stop76" /></radialGradient><clipPath
       clipPathUnits="userSpaceOnUse"
       id="clipPath84"><path
         d="m 263.505,153.387 c -10.304,-6.269 -37.02,-32.493 -32.894,-66.139 l 0,0 c 3.864,-20.439 16.738,-21.726 30.096,-15.128 l 0,0 c -4.185,-1.448 -16.738,-1.932 -17.38,13.358 l 0,0 c -0.645,15.289 13.517,19.472 21.724,11.908 l 0,0 c 8.209,-7.562 21.244,-21.083 36.211,-25.588 l 0,0 c -4.507,2.092 -11.587,7.401 -19.635,20.922 l 0,0 c -8.046,13.516 -14.161,22.852 -22.206,26.07 l 0,0 c 1.768,3.542 4.022,8.69 0.321,10.784 l 0,0 c -3.703,2.092 -6.921,-3.058 -6.921,-3.058 l 0,0 c 0,0 -1.287,0 0,2.735 l 0,0 c 1.287,2.737 7.886,16.897 16.737,22.853 l 0,0 c 0,0 2.599,2.181 5.171,3.487 l 0,0 c 6.49,3.47 10.164,1.224 11.266,0.653 l 0,0 c -2.204,1.756 -4.571,2.041 -4.571,2.041 l 0,0 c -0.876,0.105 -1.738,0.153 -2.581,0.153 l 0,0 c -8.66,-10e-4 -15.338,-5.051 -15.338,-5.051"
         id="path86"
         inkscape:connector-curvature="0" /></clipPath><linearGradient
       x1="0"
       y1="0"
       x2="1"
       y2="0"
       gradientUnits="userSpaceOnUse"
       gradientTransform="matrix(30.374569,91.371063,91.371063,-30.374569,258.43896,65.954102)"
       spreadMethod="pad"
       id="linearGradient92"><stop
         style="stop-opacity:1;stop-color:#00642f"
         offset="0"
         id="stop94" /><stop
         style="stop-opacity:1;stop-color:#42a83c"
         offset="0.24372249"
         id="stop96" /><stop
         style="stop-opacity:1;stop-color:#42a83c"
         offset="0.512195"
         id="stop98" /><stop
         style="stop-opacity:1;stop-color:#42a83c"
         offset="0.74898886"
         id="stop100" /><stop
         style="stop-opacity:1;stop-color:#00642f"
         offset="1"
         id="stop102" /></linearGradient><linearGradient
       x1="0"
       y1="0"
       x2="1"
       y2="0"
       gradientUnits="userSpaceOnUse"
       gradientTransform="matrix(35.375874,58.59977,58.59977,-35.375874,304.86719,66.061523)"
       spreadMethod="pad"
       id="linearGradient118"><stop
         style="stop-opacity:1;stop-color:#00579c"
         offset="0"
         id="stop120" /><stop
         style="stop-opacity:1;stop-color:#0096c7"
         offset="0.53124072"
         id="stop122" /><stop
         style="stop-opacity:1;stop-color:#0096c7"
         offset="0.536585"
         id="stop124" /><stop
         style="stop-opacity:1;stop-color:#0096c7"
         offset="0.67240794"
         id="stop126" /><stop
         style="stop-opacity:1;stop-color:#00579c"
         offset="1"
         id="stop128" /></linearGradient><clipPath
       clipPathUnits="userSpaceOnUse"
       id="clipPath136"><path
         d="m 0,829.772 621.98,0 L 621.98,0 0,0 0,829.772 Z"
         id="path138"
         inkscape:connector-curvature="0" /></clipPath></defs><sodipodi:namedview
     pagecolor="#ffffff"
     bordercolor="#666666"
     borderopacity="1"
     objecttolerance="10"
     gridtolerance="10"
     guidetolerance="10"
     inkscape:pageopacity="0"
     inkscape:pageshadow="2"
     inkscape:window-width="1855"
     inkscape:window-height="1056"
     id="namedview4"
     showgrid="false"
     inkscape:zoom="0.52679455"
     inkscape:cx="1001.034"
     inkscape:cy="535.07218"
     inkscape:window-x="65"
     inkscape:window-y="24"
     inkscape:window-maximized="1"
     inkscape:current-layer="g10" /><g
     id="g10"
     inkscape:groupmode="layer"
     inkscape:label="Rio2016Vector_019"
     transform="matrix(1.25,0,0,-1.25,0,512.00003)"><g
       id="g34"
       transform="translate(649.96876,150.34324)"><g
         id="g36"
         clip-path="url(#clipPath38)"><g
           id="g42"
           transform="translate(274.271,23.8545)"><path
             d="m 0,0 c -2.561,0.954 -4.169,4.646 -4.824,7.446 0,0 -1.31,5.599 4.11,4.527 C 3.336,11.078 5.052,6.065 5.301,3.694 5.539,1.43 4.526,-1.965 0,0 M 5.539,15.189 C 0.715,19.299 -6.016,15.545 -7.624,12.508 -9.232,9.469 -12.567,4.646 -13.64,2.383 c -1.072,-2.265 -2.204,-3.813 -3.574,-3.693 -1.369,0.119 -1.072,2.025 -1.072,2.025 0,0 0.001,4.705 0.12,8.339 0.119,3.632 -3.395,1.607 -4.348,0.535 -0.953,-1.072 -6.551,-9.947 -10.483,-10.423 -3.931,-0.478 -4.765,3.395 -6.85,7.743 15.785,4.168 15.546,16.32 9.351,19.953 -6.193,3.632 -15.783,0.656 -20.846,-7.684 -5.062,-8.339 -1.667,-22.396 -1.667,-22.396 0.416,-1.845 1.548,-3.512 3.752,-1.309 2.204,2.204 2.025,3.096 1.369,4.883 -0.654,1.788 -2.323,7.148 -1.191,13.759 1.132,6.612 7.981,9.947 12.865,9.114 4.885,-0.835 5.838,-5.54 3.932,-8.161 -1.906,-2.62 -5.063,-3.455 -8.994,-4.049 -3.932,-0.596 -4.408,-3.336 -3.871,-5.302 0.536,-1.966 1.489,-5.002 5.181,-9.171 3.693,-4.171 8.398,-1.728 9.827,-0.417 1.43,1.309 4.169,4.407 5.302,6.193 1.132,1.787 1.369,0.537 1.369,0.537 0,0 -0.059,-2.798 0.298,-5.063 0.536,-3.634 5.421,-4.287 7.267,-2.858 1.846,1.428 4.884,5.48 5.421,7.087 0.536,1.609 1.131,1.132 1.131,1.132 0,0 0.417,-2.442 1.608,-4.171 2.323,-4.107 9.232,-7.324 14.177,-2.262 4.943,5.063 3.929,14.354 -0.895,18.465"
             style="fill:#004689;fill-opacity:1;fill-rule:nonzero;stroke:none"
             id="path44"
             inkscape:connector-curvature="0" /></g><g
           id="g46"
           transform="translate(255.48,38.209)"><path
             d="M 0,0 C 1.694,0 3.067,1.373 3.067,3.065 3.067,4.76 1.694,6.135 0,6.135 -1.694,6.135 -3.067,4.76 -3.067,3.065 -3.067,1.373 -1.694,0 0,0"
             style="fill:#004689;fill-opacity:1;fill-rule:nonzero;stroke:none"
             id="path48"
             inkscape:connector-curvature="0" /></g><g
           id="g50"
           transform="translate(322.4355,26.8242)"><path
             d="m 0,0 c -0.631,-2.019 -2.179,-5.104 -7.622,-2.858 -4.152,1.77 -4.084,6.397 -4.084,6.397 0,0 -0.648,6.86 6.125,5.58 C 0.545,7.964 0.34,1.089 0,0 m -5.784,14.02 c -8.78,-0.612 -10.414,-9.188 -10.549,-10.209 -0.136,-1.022 -0.205,-3.471 -3.812,-5.99 -3.606,-2.516 -7.895,-2.516 -9.188,-0.816 -1.292,1.702 0.409,3.062 2.928,5.649 2.517,2.586 11.296,9.869 10.276,15.857 -1.021,5.99 -9.664,8.849 -15.45,4.425 0,0 -4.218,-3.063 -2.654,-5.378 0,0 0.612,-1.36 3.267,0.682 0,0 4.22,3.538 7.419,1.156 3.198,-2.38 3.81,-6.601 -2.382,-11.91 -6.194,-5.308 -6.806,-5.987 -7.895,-7.554 -1.09,-1.565 -1.973,-4.016 0.203,-6.806 2.179,-2.79 7.216,-2.314 10.958,-0.681 3.744,1.634 7.01,5.309 7.01,5.309 0,0 1.566,-6.058 7.418,-6.534 5.853,-0.476 11.774,3.471 12.659,9.256 0.885,5.786 -1.43,14.157 -10.208,13.544"
             style="fill:#004689;fill-opacity:1;fill-rule:nonzero;stroke:none"
             id="path52"
             inkscape:connector-curvature="0" /></g><g
           id="g54"
           transform="translate(352.3125,23.0801)"><path
             d="m 0,0 c -4.423,1.565 -4.968,7.691 -4.968,7.691 0,0 6.601,3.402 10.549,-0.748 C 9.528,2.792 4.424,-1.564 0,0 m 10.004,10.958 c -4.628,5.854 -12.318,2.791 -15.177,0.681 1.225,5.241 4.424,7.691 8.167,10.617 3.743,2.927 4.288,3.675 4.152,4.424 C 7.01,27.428 6.67,28.653 3.674,27.156 -5.717,22.187 -9.46,13.341 -10.004,8.576 c -1.905,-1.497 -5.378,-6.057 -5.378,-6.057 0,0 0.069,10.958 -0.067,14.293 -0.136,3.334 -2.382,1.565 -2.382,1.565 l -4.695,-2.723 c 0,0 -1.838,-1.429 -0.613,-2.721 1.225,-1.294 3.13,0.067 3.13,0.067 0,0 0,-12.318 -0.136,-15.108 -0.135,-2.79 2.11,-2.928 2.586,-1.976 0.477,0.954 5.65,5.649 7.827,8.304 1.701,-7.689 8.03,-10.345 12.93,-8.983 4.901,1.361 11.435,9.868 6.806,15.721"
             style="fill:#004689;fill-opacity:1;fill-rule:nonzero;stroke:none"
             id="path56"
             inkscape:connector-curvature="0" /></g></g></g><g
       id="g58"
       transform="translate(649.96876,150.34324)"><g
         id="g60"
         clip-path="url(#clipPath62)"><g
           id="g66"><g
             id="g68"><path
               d="m 262.146,150.421 -5.469,-6.075 c 0,0 1.824,-4.253 5.367,0.506 l 0,0 c 3.544,4.76 11.038,10.026 16.609,9.722 l 0,0 c 5.57,-0.303 8.304,-7.494 6.683,-25.317 l 0,0 C 283.716,111.434 274.196,99.08 272.07,95.232 l 0,0 C 269.943,91.384 260.121,76.294 252.222,74.675 l 0,0 c -7.899,-1.621 -8.608,6.886 -8.608,6.886 l 0,0 -2.329,-6.075 c 0,0 5.265,-7.394 10.025,-6.584 l 0,0 c 4.761,0.811 10.127,1.924 20.658,12.557 l 0,0 c 17.925,16.507 27.445,8.911 36.052,2.735 l 0,0 c 8.607,-6.178 15.696,-17.419 15.696,-17.419 l 0,0 2.634,-0.305 16.707,16.711 c 0,0 -5.265,-2.025 -19.037,1.822 l 0,0 c -15.899,4.355 -25.215,14.584 -25.013,23.596 l 0,0 c 0.203,9.013 17.822,12.659 32.505,7.29 l 0,0 c 14.685,-5.366 15.8,-17.215 15.8,-17.215 l 0,0 2.025,2.937 c 0,0 1.216,-1.519 -1.519,7.19 l 0,0 c -9.013,17.723 -42.027,17.317 -43.748,17.115 l 0,0 c -1.722,-0.203 -1.316,1.216 -0.81,2.734 l 0,0 c 0.81,4.354 -1.923,5.67 -1.923,5.67 l 0,0 c -4.053,2.026 -6.482,-2.634 -7.697,-4.355 l 0,0 c -1.215,-1.721 -1.113,0.204 -1.113,2.937 l 0,0 c 0.303,24.711 -10.229,25.217 -10.229,25.217 l 0,0 c -0.54,0.102 -1.107,0.15 -1.695,0.15 l 0,0 c -7.559,-0.001 -18.457,-7.848 -18.457,-7.848"
               style="fill:url(#radialGradient70);stroke:none"
               id="path78"
               inkscape:connector-curvature="0" /></g></g></g></g><g
       id="g80"
       transform="translate(649.96876,150.34324)"><g
         id="g82"
         clip-path="url(#clipPath84)"><g
           id="g88"><g
             id="g90"><path
               d="m 263.505,153.387 c -10.304,-6.269 -37.02,-32.493 -32.894,-66.139 l 0,0 c 3.864,-20.439 16.738,-21.726 30.096,-15.128 l 0,0 c -4.185,-1.448 -16.738,-1.932 -17.38,13.358 l 0,0 c -0.645,15.289 13.517,19.472 21.724,11.908 l 0,0 c 8.209,-7.562 21.244,-21.083 36.211,-25.588 l 0,0 c -4.507,2.092 -11.587,7.401 -19.635,20.922 l 0,0 c -8.046,13.516 -14.161,22.852 -22.206,26.07 l 0,0 c 1.768,3.542 4.022,8.69 0.321,10.784 l 0,0 c -3.703,2.092 -6.921,-3.058 -6.921,-3.058 l 0,0 c 0,0 -1.287,0 0,2.735 l 0,0 c 1.287,2.737 7.886,16.897 16.737,22.853 l 0,0 c 0,0 2.599,2.181 5.171,3.487 l 0,0 c 6.49,3.47 10.164,1.224 11.266,0.653 l 0,0 c -2.204,1.756 -4.571,2.041 -4.571,2.041 l 0,0 c -0.876,0.105 -1.738,0.153 -2.581,0.153 l 0,0 c -8.66,-10e-4 -15.338,-5.051 -15.338,-5.051"
               style="fill:url(#linearGradient92);stroke:none"
               id="path104"
               inkscape:connector-curvature="0" /></g></g></g></g><g
       id="g106"
       transform="translate(649.96876,150.34324)"><g
         id="g108"><g
           id="g114"><g
             id="g116"><path
               d="m 346.805,96.751 c 0,-1.621 -1.115,-1.114 -2.329,-0.102 l 0,0 c -1.215,1.013 -3.95,1.52 -5.772,-0.405 l 0,0 c -1.823,-1.923 -2.027,-4.658 -1.621,-7.798 l 0,0 c 0.405,-3.139 1.418,-9.924 -6.279,-14.987 l 0,0 c -7.696,-5.063 -22.295,-8.548 -42.485,5.529 l 0,0 c 0,0 -9.982,6.28 -14.748,10.542 l 0,0 c 7.899,-7.797 11.765,-12.224 17.031,-17.489 l 0,0 c 0,0 19.544,-19.14 45.265,-12.558 l 0,0 c 25.419,6.38 23.192,30.887 19.748,39.091 l 0,0 c -3.443,8.202 -10.837,17.721 -23.595,22.886 l 0,0 c 0,0 17.52,-9.013 14.785,-24.709"
               style="fill:url(#linearGradient118);stroke:none"
               id="path130"
               inkscape:connector-curvature="0" /></g></g></g></g><g
       id="g180"
       transform="translate(918.57426,338.56294)"><path
         d="m 0,0 c -2.921,1.079 -5.858,2.519 -8.695,4.242 13.769,0.71 28.591,7.275 39.868,9.105 -0.341,-0.65 -0.7,-1.291 -1.065,-1.908 C 20.736,8.438 6.835,1.546 0,0 m -16.043,9.56 c 1.458,-1.25 2.991,-2.423 4.569,-3.516 6.115,-0.488 12.573,0.05 18.313,1.504 7.979,2.018 16.365,5.958 25.225,7.568 0.961,1.996 1.818,4.09 2.57,6.253 C 28.083,20.738 21.691,19.015 14.143,15.439 12.554,14.688 10.951,14 9.334,13.374 9.166,12.506 8.86,11.506 8.29,10.771 5.536,7.271 0.178,8.697 -2.914,10.06 -7.27,9.363 -11.667,9.183 -16.043,9.56 m 18.307,6.052 c 2.17,0.172 3.1,3.222 5.288,4.214 3.08,1.392 6.132,-2.606 6.506,-3.118 6.5,2.665 12.305,5.122 18.663,6.176 -4.527,0.357 -14.21,2.168 -20.788,5.075 C 11.824,27.871 11.709,27.782 11.584,27.701 3.807,22.61 -3.981,24.691 -7.023,25.795 -5.654,20.376 -1.368,15.319 2.264,15.612 m 29.217,48.991 c -2.206,2.088 -5.57,3.06 -9.602,3.136 C 12.418,53.488 8.483,38.304 8.11,35.424 7.974,34.396 7.636,32.729 9.157,31.509 c 0.356,0.255 0.713,0.526 1.067,0.812 1.693,1.368 3.652,-1.07 2.653,-3.196 2.359,-1.173 5.525,-2.343 9.377,-3.272 4.433,-1.069 9.045,-1.596 13.197,-1.948 4.633,15.379 3.925,33.214 -3.97,40.698 M 1.945,-0.658 c 5.78,-1.814 11.346,-2.087 15.667,-0.168 4.471,1.987 8.324,5.77 11.456,10.577 C 18.811,6.614 11.091,2.408 1.945,-0.658 M -28.929,36.396 C -25.481,51.094 2.202,66.774 19.783,67.698 18.561,65.702 17.28,63.411 15.955,60.896 8.249,46.282 5.915,35.474 5.877,33.386 5.848,32.147 6.501,31.289 7.534,30.478 1.305,26.924 -4.798,28.11 -8.102,29.874 c -1.784,0.958 -3.222,1.22 -4.67,0.515 -2.783,-1.368 -2.121,-6.279 -0.195,-10.312 1.839,-3.853 4.573,-6.677 7.304,-8.5 -4.401,-0.357 -8.805,-0.206 -13.063,0.436 -7.386,7.232 -12.121,16.216 -10.203,24.383 m 13.44,-2.035 c 0.88,-2.253 2.846,-2.537 3.593,-2.483 2.785,0.203 3.889,3.145 2.981,5.483 -0.818,2.111 -2.961,2.938 -4.777,2.212 -1.454,-0.588 -2.762,-2.743 -1.797,-5.212"
         style="fill:#054c89;fill-opacity:1;fill-rule:nonzero;stroke:none"
         id="path182"
         inkscape:connector-curvature="0" /></g><g
       id="g188"
       transform="translate(995.83786,370.78274)"><path
         d="m 0,0 c 0,0 0.32,-0.076 0.315,0.144 -0.002,0.134 -0.252,0.241 -0.76,0.506 -3.189,1.704 -6.523,3.788 -8.314,5.288 -6.027,5.052 -7.607,9.556 -8.039,11.793 -0.492,2.581 0.669,3.342 1.262,3.732 1.269,0.83 2.956,0.56 3.876,-1.286 C -10.342,17.498 -7.907,8.752 2.085,4.646 8.026,2.208 15.007,2.649 21.877,3.149 c 2.139,0.144 3.855,-0.533 5.384,-2.271 4.995,-5.674 12.99,-6.987 20.177,-4.077 2.397,0.97 3.674,0.332 4.143,-0.587 0.619,-1.181 -0.104,-2.62 -2.318,-3.728 -3.283,-1.631 -15.05,-3.482 -24.504,4.446 0,0 -14.447,-4.052 -34.107,1.699 -2.411,0.701 -4.399,1.45 -6.033,2.181 1.345,-3.246 3.001,-6.502 4.884,-9.641 1.926,-0.553 4.15,-1.631 6.115,-3.586 4.34,-4.323 7.614,-4.062 9.154,-3.827 2.825,0.429 3.823,1.972 6.476,1.695 2.646,-0.283 4.086,-2.876 10.227,-1.241 2.257,0.607 4.329,1.695 6.506,2.525 2.157,0.831 4.641,1.301 6.936,0.801 1.846,-0.392 3.271,-1.517 4.767,-2.602 1.753,-1.274 3.677,-1.958 5.877,-1.678 1.115,0.138 2.005,0.635 2.718,1.135 5.786,8.306 8.159,18.211 3.898,26.033 C 43.689,26.003 -6.886,42.868 -16.98,27.163 -19.856,22.68 -19.905,15.909 -17.987,8.525 -15.769,6.961 -9.44,1.785 0,0 m 42.069,3.935 c 0.429,2.395 2.83,3.963 5.628,3.36 3.096,-0.661 5.373,-3.668 3.628,-6.697 -0.463,-0.805 -2.032,-2.539 -5.047,-2.017 -2.608,0.454 -4.671,2.773 -4.209,5.354 M 29.46,6.387 c 0.582,0.504 2.465,1.45 4.486,0.17 C 36.249,5.096 36.521,2.534 35.678,1.158 34.635,-0.564 32.357,-1.199 30.379,0.031 28.195,1.393 27.29,4.503 29.46,6.387 m 14.088,-3.93 c -0.3,1.627 0.852,3.4 2.784,3.67 2.358,0.33 4.43,-1.397 4.039,-3.731 -0.105,-0.627 -0.79,-2.246 -2.854,-2.581 -1.969,-0.327 -3.654,0.874 -3.969,2.642 m 2.707,-20.73 c -7.258,-8.832 -18.352,-15.163 -28.791,-13.847 -9.657,1.22 -19.54,10.232 -26.627,21.157 1.445,-0.458 2.982,-1.331 4.744,-3.016 1.654,-1.571 3.629,-2.967 5.9,-3.494 1.01,-0.226 2.063,-0.251 3.085,-0.066 1.277,0.227 2.382,0.83 3.599,1.234 3.068,1.028 4.416,-0.607 6.531,-1.207 2.257,-0.645 4.642,-0.342 6.837,0.401 2.237,0.767 4.305,1.949 6.549,2.688 2.207,0.728 4.572,0.86 6.835,0.345 3.154,-0.716 4.271,-2.202 5.595,-3.022 2.053,-1.269 3.876,-1.887 5.743,-1.173"
         style="fill:#054c89;fill-opacity:1;fill-rule:nonzero;stroke:none"
         id="path190"
         inkscape:connector-curvature="0" /></g><g
       id="g192"
       transform="translate(1098.251,401.66164)"><path
         d="M 0,0 C 0.775,1.377 2.686,1.997 4.251,1.043 6.16,-0.116 6.61,-2.627 4.911,-4.117 4.459,-4.515 2.977,-5.302 1.275,-4.318 -0.348,-3.391 -0.835,-1.492 0,0 m -0.461,-65.205 c -4.393,-1.093 -8.599,-1.166 -12.22,0.05 -18.144,6.108 -14.999,55.275 -2.347,66.694 6.503,5.875 17.964,4.576 28.404,-0.282 -0.077,-0.218 -0.161,-0.465 -0.255,-0.738 -0.478,-1.373 -0.798,-2.165 -1.589,-3.746 -5.979,-11.985 -20.536,-20.5 -24.741,-19.772 -2.68,0.469 -1.809,4.61 -0.645,7.16 1.177,2.568 2.425,4.849 -0.031,5.484 -2.332,0.603 -4.136,-1.877 -4.896,-5.119 -1.372,-5.902 0.532,-10.255 3.49,-11.336 2.691,-0.973 6.86,0.054 11.3,2.496 3.422,-4.392 4.071,-10.233 3.518,-14.99 -0.525,-4.092 -1.847,-7.717 -2.801,-9.156 -1.321,-2.004 -3.195,-4.118 -9.948,-7.379 -2.812,-1.357 -0.762,-5.295 1.886,-4.199 8.043,3.342 11.576,8.34 13.15,11.932 1.13,2.568 1.635,7.188 1.874,8.922 0.12,0.876 0.157,1.523 0.513,1.642 0.26,0.089 0.585,0.033 0.61,-0.793 0.444,-13.421 -3.951,-20.957 -5.313,-24.046 -0.574,-1.295 -0.419,-2.236 0.041,-2.824 M -0.365,-4.49 C 1.437,-6.721 3.69,-6.33 4.517,-6.015 7.61,-4.815 7.787,-1.237 5.951,1.1 4.286,3.207 1.598,3.483 -0.168,1.969 -2.072,0.338 -1.935,-2.561 -0.365,-4.49 m -4.644,-11.445 c 2.27,-0.804 3.763,0.489 4.213,1.085 1.663,2.235 0.159,4.991 -2.186,5.825 -2.124,0.754 -4.15,-0.316 -4.784,-2.161 -0.505,-1.478 0.269,-3.865 2.757,-4.749 M 15.668,0.122 c 0.05,-2.54 -1.798,-7.005 -5.932,-12.454 -1.364,-1.791 -2.87,-3.472 -4.453,-5.018 0.869,-1.889 6.193,-14.313 3.57,-30.475 -1.42,-8.73 -2.935,-13.347 -4.293,-15.742 15.392,6.205 31.249,23.057 31.682,38.815 0.245,9.055 -9.28,18.965 -20.574,24.874"
         style="fill:#054c89;fill-opacity:1;fill-rule:nonzero;stroke:none"
         id="path194"
         inkscape:connector-curvature="0" /></g><g
       id="g6388"
       transform="matrix(5.4725555,0,0,5.4725555,-4351.2375,-1833.5076)"><g
         transform="translate(845.95366,361.30414)"
         id="g420"><path
           inkscape:connector-curvature="0"
           id="path422"
           style="fill:#054c89;fill-opacity:1;fill-rule:nonzero;stroke:none"
           d="m 0,0 c -2.091,1.977 -5.289,1.947 -7.096,-0.007 -1.807,-1.962 -1.56,-5.118 0.547,-7.079 2.1,-1.954 5.276,-1.935 7.093,0.011 C 2.492,-4.996 2.029,-1.918 0,0" /></g><g
         transform="translate(858.73486,361.29734)"
         id="g424"><path
           inkscape:connector-curvature="0"
           id="path426"
           style="fill:#054c89;fill-opacity:1;fill-rule:nonzero;stroke:none"
           d="M 0,0 C -1.809,-1.962 -1.648,-5.461 0.997,-7.452 3.408,-5.026 5.394,-2.423 6.796,0.266 4.712,1.969 1.726,1.861 0,0" /></g><g
         transform="translate(841.75836,364.80414)"
         id="g428"><path
           inkscape:connector-curvature="0"
           id="path430"
           style="fill:#054c89;fill-opacity:1;fill-rule:nonzero;stroke:none"
           d="m 0,0 c -4.287,-0.272 -7.023,-3.654 -6.606,-7.557 0.422,-3.904 4.558,-6.373 8.406,-6.249 4.156,0.139 7.103,3.526 6.645,7.572 C 8.002,-2.326 3.928,0.234 0,0 m 6.9,-9.029 c -0.983,-2.908 -4.426,-4.397 -7.73,-3.291 -3.302,1.11 -5.197,4.348 -4.235,7.256 0.965,2.913 4.438,4.42 7.732,3.292 3.192,-1.097 5.283,-4.15 4.233,-7.257" /></g><g
         transform="translate(861.63336,364.80224)"
         id="g432"><path
           inkscape:connector-curvature="0"
           id="path434"
           style="fill:#054c89;fill-opacity:1;fill-rule:nonzero;stroke:none"
           d="m 0,0 c -4.285,-0.268 -7.021,-3.652 -6.603,-7.555 0.223,-2.076 1.492,-3.738 3.212,-4.834 0.311,0.288 0.618,0.577 0.919,0.873 -2.251,1.472 -3.383,4.072 -2.589,6.454 0.962,2.913 4.435,4.422 7.727,3.291 0.572,-0.192 1.105,-0.45 1.59,-0.762 0.223,0.458 0.425,0.927 0.614,1.391 C 3.421,-0.316 1.698,0.102 0,0" /></g><g
         transform="translate(854.05226,355.53564)"
         id="g436"><path
           inkscape:connector-curvature="0"
           id="path438"
           style="fill:#054c89;fill-opacity:1;fill-rule:nonzero;stroke:none"
           d="m 0,0 c -1.141,4.131 1.724,8.584 6.431,9.83 2.241,0.596 4.548,0.365 6.454,-0.515 0.853,2.572 1.307,5.995 0.343,9.4 -0.818,-0.181 -1.775,-0.256 -2.929,-0.214 -2.749,0.111 -5.393,1.342 -7.894,2.139 -5.215,1.656 -8.631,1.276 -11.52,-0.458 -0.783,-0.47 -1.53,-0.366 -1.753,0.142 -0.145,0.334 0.051,0.741 0.489,1.019 1.929,1.199 3.853,1.618 6.008,1.585 2.179,-0.032 4.422,-0.693 7.162,-1.543 4.138,-1.284 7.388,-1.965 9.996,-1.27 -0.307,0.84 -0.672,1.682 -1.101,2.515 -2.956,0.146 -5.933,1.344 -7.817,1.932 -5.273,1.642 -8.573,1.402 -11.494,-0.25 -1.05,-0.589 -1.702,-0.394 -1.983,-0.079 -0.234,0.27 -0.109,0.797 0.486,1.147 1.956,1.131 3.942,1.418 6.124,1.392 2.204,-0.035 4.479,-0.673 7.25,-1.496 2.574,-0.762 4.808,-1.292 6.757,-1.426 -10.103,17.18 -45.081,31.417 -60.553,20.338 -9.558,-6.843 -8.271,-27.899 -1.352,-43.154 7.921,8.768 12.42,18.782 16.104,30.513 -3.279,3.035 -5.868,4.727 -8.459,2.263 -2.55,-2.431 -2.825,-6.091 -4.479,-6.052 -1.01,0.029 -1.28,0.965 -1.069,2.168 0.495,2.772 2.034,5.337 3.82,7.195 4.85,5.029 11.063,0.168 15.04,-3.518 4.249,-3.94 8.446,-8.174 10.664,-7.65 1.468,0.342 2.833,2.627 3.546,4.189 0.869,1.902 2.12,2.964 3.783,2.106 3.017,-1.55 -1.731,-8.583 -4.491,-10.199 -3.224,-1.884 -6.15,-1.188 -11.014,2.763 -0.872,-2.012 -2.325,-5 -4.522,-8.506 2.277,-0.563 4.84,-1.454 6.467,-2.49 2.522,-1.621 4.315,-3.326 4.088,-5.724 -0.39,-4.124 -6.823,-11.899 -9.673,-13.772 -1.985,-1.311 -5.147,-0.114 -3.848,1.381 1.884,2.181 10.646,10.018 7.666,12.37 -0.843,0.662 -4.675,1.408 -9.68,1.373 -2.443,-3.14 -6.759,-8.31 -11.663,-12.869 3.421,-5.922 7.775,-10.419 12.658,-11.922 11.908,-3.664 28.395,2.113 39.071,11.267 C 1.62,-3.137 0.481,-1.753 0,0 m -28.337,34.571 c -0.726,0.172 -2.539,1.092 -2.66,3.452 -0.116,2.166 1.297,4.2 3.291,4.412 1.946,0.203 3.741,-1.301 3.878,-3.557 0.152,-2.497 -1.794,-4.966 -4.509,-4.307 M -9.306,-5.151 c -4.601,-1.147 -9.426,1.01 -10.571,5.151 -1.144,4.131 1.724,8.584 6.431,9.83 4.569,1.214 9.427,-1.008 10.569,-5.139 1.146,-4.145 -1.703,-8.668 -6.429,-9.842 m 7.579,12.619 c 1.714,1.997 3.764,3.207 5.659,4.218 0.103,0.055 0.062,0.134 -0.057,0.12 -4.267,-0.461 -9.393,-0.461 -13.592,0.166 -0.899,0.138 -0.547,1.504 0.234,1.358 5.578,-1.093 12.656,-1.128 19.469,0.48 0.685,0.162 1.094,-1.004 0.313,-1.135 C 8.337,12.349 6.581,12.036 5.103,11.391 2.84,10.411 1.13,8.891 -0.431,6.938 -0.835,6.437 -2.249,6.861 -1.727,7.468" /></g></g></g></svg>