<?xml version="1.0" encoding="UTF-8" standalone="no"?>
<!-- Created with Inkscape (http://www.inkscape.org/) -->

<svg
   xmlns:dc="http://purl.org/dc/elements/1.1/"
   xmlns:cc="http://creativecommons.org/ns#"
   xmlns:rdf="http://www.w3.org/1999/02/22-rdf-syntax-ns#"
   xmlns:svg="http://www.w3.org/2000/svg"
   xmlns="http://www.w3.org/2000/svg"
   xmlns:sodipodi="http://sodipodi.sourceforge.net/DTD/sodipodi-0.dtd"
   xmlns:inkscape="http://www.inkscape.org/namespaces/inkscape"
   id="svg2"
   version="1.1"
   inkscape:version="0.91 r13725"
   xml:space="preserve"
   width="512"
   height="512"
   viewBox="0 0 512 512.00002"
   sodipodi:docname="olimpycs_40.svg"><metadata
     id="metadata8"><rdf:RDF><cc:Work
         rdf:about=""><dc:format>image/svg+xml</dc:format><dc:type
           rdf:resource="http://purl.org/dc/dcmitype/StillImage" /><dc:title></dc:title></cc:Work></rdf:RDF></metadata><defs
     id="defs6"><clipPath
       clipPathUnits="userSpaceOnUse"
       id="clipPath16"><path
         d="m 0,0 621.98,0 0,829.772 L 0,829.772 0,0 Z"
         id="path18"
         inkscape:connector-curvature="0" /></clipPath><radialGradient
       fx="0"
       fy="0"
       cx="0"
       cy="0"
       r="1"
       gradientUnits="userSpaceOnUse"
       gradientTransform="matrix(479.01392,0,0,-479.01392,320.69434,431.88232)"
       spreadMethod="pad"
       id="radialGradient24"><stop
         style="stop-opacity:1;stop-color:#ffffff"
         offset="0"
         id="stop26" /><stop
         style="stop-opacity:1;stop-color:#ffffff"
         offset="0.5188977"
         id="stop28" /><stop
         style="stop-opacity:1;stop-color:#d0d2d6"
         offset="1"
         id="stop30" /></radialGradient><clipPath
       clipPathUnits="userSpaceOnUse"
       id="clipPath38"><path
         d="m 0,829.772 621.98,0 L 621.98,0 0,0 0,829.772 Z"
         id="path40"
         inkscape:connector-curvature="0" /></clipPath><clipPath
       clipPathUnits="userSpaceOnUse"
       id="clipPath62"><path
         d="m 262.146,150.421 -5.469,-6.075 c 0,0 1.824,-4.253 5.367,0.506 l 0,0 c 3.544,4.76 11.038,10.026 16.609,9.722 l 0,0 c 5.57,-0.303 8.304,-7.494 6.683,-25.317 l 0,0 C 283.716,111.434 274.196,99.08 272.07,95.232 l 0,0 C 269.943,91.384 260.121,76.294 252.222,74.675 l 0,0 c -7.899,-1.621 -8.608,6.886 -8.608,6.886 l 0,0 -2.329,-6.075 c 0,0 5.265,-7.394 10.025,-6.584 l 0,0 c 4.761,0.811 10.127,1.924 20.658,12.557 l 0,0 c 17.925,16.507 27.445,8.911 36.052,2.735 l 0,0 c 8.607,-6.178 15.696,-17.419 15.696,-17.419 l 0,0 2.634,-0.305 16.707,16.711 c 0,0 -5.265,-2.025 -19.037,1.822 l 0,0 c -15.899,4.355 -25.215,14.584 -25.013,23.596 l 0,0 c 0.203,9.013 17.822,12.659 32.505,7.29 l 0,0 c 14.685,-5.366 15.8,-17.215 15.8,-17.215 l 0,0 2.025,2.937 c 0,0 1.216,-1.519 -1.519,7.19 l 0,0 c -9.013,17.723 -42.027,17.317 -43.748,17.115 l 0,0 c -1.722,-0.203 -1.316,1.216 -0.81,2.734 l 0,0 c 0.81,4.354 -1.923,5.67 -1.923,5.67 l 0,0 c -4.053,2.026 -6.482,-2.634 -7.697,-4.355 l 0,0 c -1.215,-1.721 -1.113,0.204 -1.113,2.937 l 0,0 c 0.303,24.711 -10.229,25.217 -10.229,25.217 l 0,0 c -0.54,0.102 -1.107,0.15 -1.695,0.15 l 0,0 c -7.559,-0.001 -18.457,-7.848 -18.457,-7.848"
         id="path64"
         inkscape:connector-curvature="0" /></clipPath><radialGradient
       fx="0"
       fy="0"
       cx="0"
       cy="0"
       r="1"
       gradientUnits="userSpaceOnUse"
       gradientTransform="matrix(50.199547,0,0,-50.199547,295.44629,112.36914)"
       spreadMethod="pad"
       id="radialGradient70"><stop
         style="stop-opacity:1;stop-color:#f9c00d"
         offset="0"
         id="stop72" /><stop
         style="stop-opacity:1;stop-color:#f9c00d"
         offset="0.29309138"
         id="stop74" /><stop
         style="stop-opacity:1;stop-color:#e96b35"
         offset="1"
         id="stop76" /></radialGradient><clipPath
       clipPathUnits="userSpaceOnUse"
       id="clipPath84"><path
         d="m 263.505,153.387 c -10.304,-6.269 -37.02,-32.493 -32.894,-66.139 l 0,0 c 3.864,-20.439 16.738,-21.726 30.096,-15.128 l 0,0 c -4.185,-1.448 -16.738,-1.932 -17.38,13.358 l 0,0 c -0.645,15.289 13.517,19.472 21.724,11.908 l 0,0 c 8.209,-7.562 21.244,-21.083 36.211,-25.588 l 0,0 c -4.507,2.092 -11.587,7.401 -19.635,20.922 l 0,0 c -8.046,13.516 -14.161,22.852 -22.206,26.07 l 0,0 c 1.768,3.542 4.022,8.69 0.321,10.784 l 0,0 c -3.703,2.092 -6.921,-3.058 -6.921,-3.058 l 0,0 c 0,0 -1.287,0 0,2.735 l 0,0 c 1.287,2.737 7.886,16.897 16.737,22.853 l 0,0 c 0,0 2.599,2.181 5.171,3.487 l 0,0 c 6.49,3.47 10.164,1.224 11.266,0.653 l 0,0 c -2.204,1.756 -4.571,2.041 -4.571,2.041 l 0,0 c -0.876,0.105 -1.738,0.153 -2.581,0.153 l 0,0 c -8.66,-10e-4 -15.338,-5.051 -15.338,-5.051"
         id="path86"
         inkscape:connector-curvature="0" /></clipPath><linearGradient
       x1="0"
       y1="0"
       x2="1"
       y2="0"
       gradientUnits="userSpaceOnUse"
       gradientTransform="matrix(30.374569,91.371063,91.371063,-30.374569,258.43896,65.954102)"
       spreadMethod="pad"
       id="linearGradient92"><stop
         style="stop-opacity:1;stop-color:#00642f"
         offset="0"
         id="stop94" /><stop
         style="stop-opacity:1;stop-color:#42a83c"
         offset="0.24372249"
         id="stop96" /><stop
         style="stop-opacity:1;stop-color:#42a83c"
         offset="0.512195"
         id="stop98" /><stop
         style="stop-opacity:1;stop-color:#42a83c"
         offset="0.74898886"
         id="stop100" /><stop
         style="stop-opacity:1;stop-color:#00642f"
         offset="1"
         id="stop102" /></linearGradient><linearGradient
       x1="0"
       y1="0"
       x2="1"
       y2="0"
       gradientUnits="userSpaceOnUse"
       gradientTransform="matrix(35.375874,58.59977,58.59977,-35.375874,304.86719,66.061523)"
       spreadMethod="pad"
       id="linearGradient118"><stop
         style="stop-opacity:1;stop-color:#00579c"
         offset="0"
         id="stop120" /><stop
         style="stop-opacity:1;stop-color:#0096c7"
         offset="0.53124072"
         id="stop122" /><stop
         style="stop-opacity:1;stop-color:#0096c7"
         offset="0.536585"
         id="stop124" /><stop
         style="stop-opacity:1;stop-color:#0096c7"
         offset="0.67240794"
         id="stop126" /><stop
         style="stop-opacity:1;stop-color:#00579c"
         offset="1"
         id="stop128" /></linearGradient><clipPath
       clipPathUnits="userSpaceOnUse"
       id="clipPath136"><path
         d="m 0,829.772 621.98,0 L 621.98,0 0,0 0,829.772 Z"
         id="path138"
         inkscape:connector-curvature="0" /></clipPath></defs><sodipodi:namedview
     pagecolor="#ffffff"
     bordercolor="#666666"
     borderopacity="1"
     objecttolerance="10"
     gridtolerance="10"
     guidetolerance="10"
     inkscape:pageopacity="0"
     inkscape:pageshadow="2"
     inkscape:window-width="1855"
     inkscape:window-height="1056"
     id="namedview4"
     showgrid="false"
     inkscape:zoom="0.52679455"
     inkscape:cx="1001.034"
     inkscape:cy="535.07218"
     inkscape:window-x="65"
     inkscape:window-y="24"
     inkscape:window-maximized="1"
     inkscape:current-layer="g10" /><g
     id="g10"
     inkscape:groupmode="layer"
     inkscape:label="Rio2016Vector_019"
     transform="matrix(1.25,0,0,-1.25,0,512.00003)"><g
       id="g34"
       transform="translate(649.96876,150.34324)"><g
         id="g36"
         clip-path="url(#clipPath38)"><g
           id="g42"
           transform="translate(274.271,23.8545)"><path
             d="m 0,0 c -2.561,0.954 -4.169,4.646 -4.824,7.446 0,0 -1.31,5.599 4.11,4.527 C 3.336,11.078 5.052,6.065 5.301,3.694 5.539,1.43 4.526,-1.965 0,0 M 5.539,15.189 C 0.715,19.299 -6.016,15.545 -7.624,12.508 -9.232,9.469 -12.567,4.646 -13.64,2.383 c -1.072,-2.265 -2.204,-3.813 -3.574,-3.693 -1.369,0.119 -1.072,2.025 -1.072,2.025 0,0 0.001,4.705 0.12,8.339 0.119,3.632 -3.395,1.607 -4.348,0.535 -0.953,-1.072 -6.551,-9.947 -10.483,-10.423 -3.931,-0.478 -4.765,3.395 -6.85,7.743 15.785,4.168 15.546,16.32 9.351,19.953 -6.193,3.632 -15.783,0.656 -20.846,-7.684 -5.062,-8.339 -1.667,-22.396 -1.667,-22.396 0.416,-1.845 1.548,-3.512 3.752,-1.309 2.204,2.204 2.025,3.096 1.369,4.883 -0.654,1.788 -2.323,7.148 -1.191,13.759 1.132,6.612 7.981,9.947 12.865,9.114 4.885,-0.835 5.838,-5.54 3.932,-8.161 -1.906,-2.62 -5.063,-3.455 -8.994,-4.049 -3.932,-0.596 -4.408,-3.336 -3.871,-5.302 0.536,-1.966 1.489,-5.002 5.181,-9.171 3.693,-4.171 8.398,-1.728 9.827,-0.417 1.43,1.309 4.169,4.407 5.302,6.193 1.132,1.787 1.369,0.537 1.369,0.537 0,0 -0.059,-2.798 0.298,-5.063 0.536,-3.634 5.421,-4.287 7.267,-2.858 1.846,1.428 4.884,5.48 5.421,7.087 0.536,1.609 1.131,1.132 1.131,1.132 0,0 0.417,-2.442 1.608,-4.171 2.323,-4.107 9.232,-7.324 14.177,-2.262 4.943,5.063 3.929,14.354 -0.895,18.465"
             style="fill:#004689;fill-opacity:1;fill-rule:nonzero;stroke:none"
             id="path44"
             inkscape:connector-curvature="0" /></g><g
           id="g46"
           transform="translate(255.48,38.209)"><path
             d="M 0,0 C 1.694,0 3.067,1.373 3.067,3.065 3.067,4.76 1.694,6.135 0,6.135 -1.694,6.135 -3.067,4.76 -3.067,3.065 -3.067,1.373 -1.694,0 0,0"
             style="fill:#004689;fill-opacity:1;fill-rule:nonzero;stroke:none"
             id="path48"
             inkscape:connector-curvature="0" /></g><g
           id="g50"
           transform="translate(322.4355,26.8242)"><path
             d="m 0,0 c -0.631,-2.019 -2.179,-5.104 -7.622,-2.858 -4.152,1.77 -4.084,6.397 -4.084,6.397 0,0 -0.648,6.86 6.125,5.58 C 0.545,7.964 0.34,1.089 0,0 m -5.784,14.02 c -8.78,-0.612 -10.414,-9.188 -10.549,-10.209 -0.136,-1.022 -0.205,-3.471 -3.812,-5.99 -3.606,-2.516 -7.895,-2.516 -9.188,-0.816 -1.292,1.702 0.409,3.062 2.928,5.649 2.517,2.586 11.296,9.869 10.276,15.857 -1.021,5.99 -9.664,8.849 -15.45,4.425 0,0 -4.218,-3.063 -2.654,-5.378 0,0 0.612,-1.36 3.267,0.682 0,0 4.22,3.538 7.419,1.156 3.198,-2.38 3.81,-6.601 -2.382,-11.91 -6.194,-5.308 -6.806,-5.987 -7.895,-7.554 -1.09,-1.565 -1.973,-4.016 0.203,-6.806 2.179,-2.79 7.216,-2.314 10.958,-0.681 3.744,1.634 7.01,5.309 7.01,5.309 0,0 1.566,-6.058 7.418,-6.534 5.853,-0.476 11.774,3.471 12.659,9.256 0.885,5.786 -1.43,14.157 -10.208,13.544"
             style="fill:#004689;fill-opacity:1;fill-rule:nonzero;stroke:none"
             id="path52"
             inkscape:connector-curvature="0" /></g><g
           id="g54"
           transform="translate(352.3125,23.0801)"><path
             d="m 0,0 c -4.423,1.565 -4.968,7.691 -4.968,7.691 0,0 6.601,3.402 10.549,-0.748 C 9.528,2.792 4.424,-1.564 0,0 m 10.004,10.958 c -4.628,5.854 -12.318,2.791 -15.177,0.681 1.225,5.241 4.424,7.691 8.167,10.617 3.743,2.927 4.288,3.675 4.152,4.424 C 7.01,27.428 6.67,28.653 3.674,27.156 -5.717,22.187 -9.46,13.341 -10.004,8.576 c -1.905,-1.497 -5.378,-6.057 -5.378,-6.057 0,0 0.069,10.958 -0.067,14.293 -0.136,3.334 -2.382,1.565 -2.382,1.565 l -4.695,-2.723 c 0,0 -1.838,-1.429 -0.613,-2.721 1.225,-1.294 3.13,0.067 3.13,0.067 0,0 0,-12.318 -0.136,-15.108 -0.135,-2.79 2.11,-2.928 2.586,-1.976 0.477,0.954 5.65,5.649 7.827,8.304 1.701,-7.689 8.03,-10.345 12.93,-8.983 4.901,1.361 11.435,9.868 6.806,15.721"
             style="fill:#004689;fill-opacity:1;fill-rule:nonzero;stroke:none"
             id="path56"
             inkscape:connector-curvature="0" /></g></g></g><g
       id="g58"
       transform="translate(649.96876,150.34324)"><g
         id="g60"
         clip-path="url(#clipPath62)"><g
           id="g66"><g
             id="g68"><path
               d="m 262.146,150.421 -5.469,-6.075 c 0,0 1.824,-4.253 5.367,0.506 l 0,0 c 3.544,4.76 11.038,10.026 16.609,9.722 l 0,0 c 5.57,-0.303 8.304,-7.494 6.683,-25.317 l 0,0 C 283.716,111.434 274.196,99.08 272.07,95.232 l 0,0 C 269.943,91.384 260.121,76.294 252.222,74.675 l 0,0 c -7.899,-1.621 -8.608,6.886 -8.608,6.886 l 0,0 -2.329,-6.075 c 0,0 5.265,-7.394 10.025,-6.584 l 0,0 c 4.761,0.811 10.127,1.924 20.658,12.557 l 0,0 c 17.925,16.507 27.445,8.911 36.052,2.735 l 0,0 c 8.607,-6.178 15.696,-17.419 15.696,-17.419 l 0,0 2.634,-0.305 16.707,16.711 c 0,0 -5.265,-2.025 -19.037,1.822 l 0,0 c -15.899,4.355 -25.215,14.584 -25.013,23.596 l 0,0 c 0.203,9.013 17.822,12.659 32.505,7.29 l 0,0 c 14.685,-5.366 15.8,-17.215 15.8,-17.215 l 0,0 2.025,2.937 c 0,0 1.216,-1.519 -1.519,7.19 l 0,0 c -9.013,17.723 -42.027,17.317 -43.748,17.115 l 0,0 c -1.722,-0.203 -1.316,1.216 -0.81,2.734 l 0,0 c 0.81,4.354 -1.923,5.67 -1.923,5.67 l 0,0 c -4.053,2.026 -6.482,-2.634 -7.697,-4.355 l 0,0 c -1.215,-1.721 -1.113,0.204 -1.113,2.937 l 0,0 c 0.303,24.711 -10.229,25.217 -10.229,25.217 l 0,0 c -0.54,0.102 -1.107,0.15 -1.695,0.15 l 0,0 c -7.559,-0.001 -18.457,-7.848 -18.457,-7.848"
               style="fill:url(#radialGradient70);stroke:none"
               id="path78"
               inkscape:connector-curvature="0" /></g></g></g></g><g
       id="g80"
       transform="translate(649.96876,150.34324)"><g
         id="g82"
         clip-path="url(#clipPath84)"><g
           id="g88"><g
             id="g90"><path
               d="m 263.505,153.387 c -10.304,-6.269 -37.02,-32.493 -32.894,-66.139 l 0,0 c 3.864,-20.439 16.738,-21.726 30.096,-15.128 l 0,0 c -4.185,-1.448 -16.738,-1.932 -17.38,13.358 l 0,0 c -0.645,15.289 13.517,19.472 21.724,11.908 l 0,0 c 8.209,-7.562 21.244,-21.083 36.211,-25.588 l 0,0 c -4.507,2.092 -11.587,7.401 -19.635,20.922 l 0,0 c -8.046,13.516 -14.161,22.852 -22.206,26.07 l 0,0 c 1.768,3.542 4.022,8.69 0.321,10.784 l 0,0 c -3.703,2.092 -6.921,-3.058 -6.921,-3.058 l 0,0 c 0,0 -1.287,0 0,2.735 l 0,0 c 1.287,2.737 7.886,16.897 16.737,22.853 l 0,0 c 0,0 2.599,2.181 5.171,3.487 l 0,0 c 6.49,3.47 10.164,1.224 11.266,0.653 l 0,0 c -2.204,1.756 -4.571,2.041 -4.571,2.041 l 0,0 c -0.876,0.105 -1.738,0.153 -2.581,0.153 l 0,0 c -8.66,-10e-4 -15.338,-5.051 -15.338,-5.051"
               style="fill:url(#linearGradient92);stroke:none"
               id="path104"
               inkscape:connector-curvature="0" /></g></g></g></g><g
       id="g106"
       transform="translate(649.96876,150.34324)"><g
         id="g108"><g
           id="g114"><g
             id="g116"><path
               d="m 346.805,96.751 c 0,-1.621 -1.115,-1.114 -2.329,-0.102 l 0,0 c -1.215,1.013 -3.95,1.52 -5.772,-0.405 l 0,0 c -1.823,-1.923 -2.027,-4.658 -1.621,-7.798 l 0,0 c 0.405,-3.139 1.418,-9.924 -6.279,-14.987 l 0,0 c -7.696,-5.063 -22.295,-8.548 -42.485,5.529 l 0,0 c 0,0 -9.982,6.28 -14.748,10.542 l 0,0 c 7.899,-7.797 11.765,-12.224 17.031,-17.489 l 0,0 c 0,0 19.544,-19.14 45.265,-12.558 l 0,0 c 25.419,6.38 23.192,30.887 19.748,39.091 l 0,0 c -3.443,8.202 -10.837,17.721 -23.595,22.886 l 0,0 c 0,0 17.52,-9.013 14.785,-24.709"
               style="fill:url(#linearGradient118);stroke:none"
               id="path130"
               inkscape:connector-curvature="0" /></g></g></g></g><g
       id="g188"
       transform="matrix(5.2135394,0,0,5.2135394,115.8871,195.53496)"><path
         d="m 0,0 c 0,0 0.32,-0.076 0.315,0.144 -0.002,0.134 -0.252,0.241 -0.76,0.506 -3.189,1.704 -6.523,3.788 -8.314,5.288 -6.027,5.052 -7.607,9.556 -8.039,11.793 -0.492,2.581 0.669,3.342 1.262,3.732 1.269,0.83 2.956,0.56 3.876,-1.286 C -10.342,17.498 -7.907,8.752 2.085,4.646 8.026,2.208 15.007,2.649 21.877,3.149 c 2.139,0.144 3.855,-0.533 5.384,-2.271 4.995,-5.674 12.99,-6.987 20.177,-4.077 2.397,0.97 3.674,0.332 4.143,-0.587 0.619,-1.181 -0.104,-2.62 -2.318,-3.728 -3.283,-1.631 -15.05,-3.482 -24.504,4.446 0,0 -14.447,-4.052 -34.107,1.699 -2.411,0.701 -4.399,1.45 -6.033,2.181 1.345,-3.246 3.001,-6.502 4.884,-9.641 1.926,-0.553 4.15,-1.631 6.115,-3.586 4.34,-4.323 7.614,-4.062 9.154,-3.827 2.825,0.429 3.823,1.972 6.476,1.695 2.646,-0.283 4.086,-2.876 10.227,-1.241 2.257,0.607 4.329,1.695 6.506,2.525 2.157,0.831 4.641,1.301 6.936,0.801 1.846,-0.392 3.271,-1.517 4.767,-2.602 1.753,-1.274 3.677,-1.958 5.877,-1.678 1.115,0.138 2.005,0.635 2.718,1.135 5.786,8.306 8.159,18.211 3.898,26.033 C 43.689,26.003 -6.886,42.868 -16.98,27.163 -19.856,22.68 -19.905,15.909 -17.987,8.525 -15.769,6.961 -9.44,1.785 0,0 m 42.069,3.935 c 0.429,2.395 2.83,3.963 5.628,3.36 3.096,-0.661 5.373,-3.668 3.628,-6.697 -0.463,-0.805 -2.032,-2.539 -5.047,-2.017 -2.608,0.454 -4.671,2.773 -4.209,5.354 M 29.46,6.387 c 0.582,0.504 2.465,1.45 4.486,0.17 C 36.249,5.096 36.521,2.534 35.678,1.158 34.635,-0.564 32.357,-1.199 30.379,0.031 28.195,1.393 27.29,4.503 29.46,6.387 m 14.088,-3.93 c -0.3,1.627 0.852,3.4 2.784,3.67 2.358,0.33 4.43,-1.397 4.039,-3.731 -0.105,-0.627 -0.79,-2.246 -2.854,-2.581 -1.969,-0.327 -3.654,0.874 -3.969,2.642 m 2.707,-20.73 c -7.258,-8.832 -18.352,-15.163 -28.791,-13.847 -9.657,1.22 -19.54,10.232 -26.627,21.157 1.445,-0.458 2.982,-1.331 4.744,-3.016 1.654,-1.571 3.629,-2.967 5.9,-3.494 1.01,-0.226 2.063,-0.251 3.085,-0.066 1.277,0.227 2.382,0.83 3.599,1.234 3.068,1.028 4.416,-0.607 6.531,-1.207 2.257,-0.645 4.642,-0.342 6.837,0.401 2.237,0.767 4.305,1.949 6.549,2.688 2.207,0.728 4.572,0.86 6.835,0.345 3.154,-0.716 4.271,-2.202 5.595,-3.022 2.053,-1.269 3.876,-1.887 5.743,-1.173"
         style="fill:#054c89;fill-opacity:1;fill-rule:nonzero;stroke:none"
         id="path190"
         inkscape:connector-curvature="0" /></g><g
       id="g192"
       transform="translate(1098.251,401.66164)"><path
         d="M 0,0 C 0.775,1.377 2.686,1.997 4.251,1.043 6.16,-0.116 6.61,-2.627 4.911,-4.117 4.459,-4.515 2.977,-5.302 1.275,-4.318 -0.348,-3.391 -0.835,-1.492 0,0 m -0.461,-65.205 c -4.393,-1.093 -8.599,-1.166 -12.22,0.05 -18.144,6.108 -14.999,55.275 -2.347,66.694 6.503,5.875 17.964,4.576 28.404,-0.282 -0.077,-0.218 -0.161,-0.465 -0.255,-0.738 -0.478,-1.373 -0.798,-2.165 -1.589,-3.746 -5.979,-11.985 -20.536,-20.5 -24.741,-19.772 -2.68,0.469 -1.809,4.61 -0.645,7.16 1.177,2.568 2.425,4.849 -0.031,5.484 -2.332,0.603 -4.136,-1.877 -4.896,-5.119 -1.372,-5.902 0.532,-10.255 3.49,-11.336 2.691,-0.973 6.86,0.054 11.3,2.496 3.422,-4.392 4.071,-10.233 3.518,-14.99 -0.525,-4.092 -1.847,-7.717 -2.801,-9.156 -1.321,-2.004 -3.195,-4.118 -9.948,-7.379 -2.812,-1.357 -0.762,-5.295 1.886,-4.199 8.043,3.342 11.576,8.34 13.15,11.932 1.13,2.568 1.635,7.188 1.874,8.922 0.12,0.876 0.157,1.523 0.513,1.642 0.26,0.089 0.585,0.033 0.61,-0.793 0.444,-13.421 -3.951,-20.957 -5.313,-24.046 -0.574,-1.295 -0.419,-2.236 0.041,-2.824 M -0.365,-4.49 C 1.437,-6.721 3.69,-6.33 4.517,-6.015 7.61,-4.815 7.787,-1.237 5.951,1.1 4.286,3.207 1.598,3.483 -0.168,1.969 -2.072,0.338 -1.935,-2.561 -0.365,-4.49 m -4.644,-11.445 c 2.27,-0.804 3.763,0.489 4.213,1.085 1.663,2.235 0.159,4.991 -2.186,5.825 -2.124,0.754 -4.15,-0.316 -4.784,-2.161 -0.505,-1.478 0.269,-3.865 2.757,-4.749 M 15.668,0.122 c 0.05,-2.54 -1.798,-7.005 -5.932,-12.454 -1.364,-1.791 -2.87,-3.472 -4.453,-5.018 0.869,-1.889 6.193,-14.313 3.57,-30.475 -1.42,-8.73 -2.935,-13.347 -4.293,-15.742 15.392,6.205 31.249,23.057 31.682,38.815 0.245,9.055 -9.28,18.965 -20.574,24.874"
         style="fill:#054c89;fill-opacity:1;fill-rule:nonzero;stroke:none"
         id="path194"
         inkscape:connector-curvature="0" /></g></g></svg>